<svg xmlns="http://www.w3.org/2000/svg" version="1.1" xmlns:xlink="http://www.w3.org/1999/xlink" xmlns:svgjs="http://svgjs.dev/svgjs" viewBox="0 0 800 800"><defs><linearGradient x1="50%" y1="0%" x2="50%" y2="100%" id="ccchaos-grad"><stop stop-color="hsl(206, 75%, 49%)" stop-opacity="1" offset="0%"></stop><stop stop-color="hsl(331, 90%, 56%)" stop-opacity="1" offset="100%"></stop></linearGradient></defs><g stroke-width="8.5" stroke="url(#ccchaos-grad)" fill="none" stroke-linecap="round"><path d="M396.54 71.85C407.46 70.08 418.77 69.26 430.48 69.4 442.24 70 454.44 71.59 467.06 74.12 479.75 77.11 492.85 80.98 506.27 85.66 519.66 90.68 533.2 96.39 546.67 102.71 559.76 109.18 572.36 116.12 584.11 123.45 594.86 130.75 604.19 138.32 611.71 146.1 617.66 153.71 621.47 161.45 623.03 169.3 623.25 176.88 621.7 184.54 618.91 192.27 616.36 199.71 614.08 207.24 613.03 214.86 614.66 222.22 619.11 229.73 626.97 237.38 638.57 244.83 653.4 252.48 670.68 260.36 689.23 268.09 707.49 276.1 723.62 284.39 736.2 292.58 743.67 301.09 745.09 309.93 740.99 318.72 731.53 327.86 718.19 337.35 703.94 346.82 690.43 356.66 680.14 366.87 675.61 377.07 677.31 387.66 685.3 398.65 698.81 409.64 714.87 420.78 730.69 432.05 744.39 443.34 753.01 454.77 755.23 466.31 751.2 477.89 740.89 489.6 725.78 501.38 707.93 513.2 689.19 525.09 671.6 536.99 656.92 548.89 646.09 560.76 639.53 572.51 637.51 584.17 638.99 595.62 642.88 606.75 648.71 617.64 654.5 628.07 659.1 637.9 662.39 647.31 662.93 655.96 660.43 663.7 655.38 670.83 647.36 676.92 636.87 681.86 624.49 686.08 610.58 689.1 595.76 690.88 580.34 692.01 564.85 692.01 549.68 690.95 534.78 689.55 520.54 687.37 507.05 684.57 494.07 681.98 481.79 679.19 470.12 676.43 458.85 674.51 447.98 673.04 437.39 672.22 426.99 672.73 416.7 674.15 406.43 676.53 396.22 680.37 385.93 685.11 375.56 690.61 365.2 697.18 354.99 703.91 345 710.52 335.04 717.36 325.34 723.48 316 728.64 306.74 733.24 297.91 736.43 289.57 738.08 281.36 738.69 273.68 737.59 266.56 734.82 259.51 730.9 252.95 725.4 246.84 718.47 240.57 710.62 234.53 701.6 228.62 691.62 222.2 681.1 215.64 669.92 208.81 658.29 201.22 646.51 193.22 634.51 184.82 622.46 175.76 610.53 166.48 598.69 157.18 587 147.79 575.6 138.85 564.39 130.63 553.4 123.07 542.73 116.63 532.23 111.48 521.91 107.22 511.84 104.17 501.88 102.2 491.98 100.57 482.26 99.47 472.52 98.63 462.75 97.22 453.08 95.58 443.3 93.59 433.41 90.72 423.56 87.6 413.54 84.45 403.36 81.08 393.18 78.31 382.83 76.51 372.31 75.44 361.79 75.81 351.35 77.59 341.04 80.18 330.74 83.85 320.58 88.29 310.61 92.69 300.68 97.23 290.97 101.63 281.53 105.21 272.15 108.39 263.07 111.2 254.35 113.26 245.72 115.3 237.47 117.57 229.64 119.87 221.91 122.98 214.63 127.07 207.81 131.91 201.07 138.01 194.8 145.3 189 153.43 183.23 162.55 177.89 172.44 172.98 182.69 168 193.29 163.38 204.02 159.1 214.54 154.63 224.9 150.41 235.01 146.41 244.58 142.11 253.85 137.93 262.87 133.87 271.34 129.43 279.68 125.04 288 120.72 295.93 115.99 304.01 111.34 312.32 106.79 320.41 101.92 328.86 97.24 337.73 92.82 346.5 88.26 355.76 84.09 365.55 80.43 375.29 76.86 385.61 73.97 396.53 71.85" stroke-dasharray="1 4" transform="rotate(0, 400, 400)" opacity="0.33"></path><path d="M406.43 82.52C417.23 80.74 428.39 79.88 439.89 79.94 451.43 80.45 463.32 81.91 475.5 84.29 487.68 87.1 500.08 90.78 512.57 95.24 524.88 100.05 537.05 105.54 548.83 111.64 560.06 117.9 570.51 124.66 579.84 131.81 588.15 138.97 594.92 146.42 599.9 154.1 603.61 161.64 605.47 169.34 605.55 177.15 604.93 184.74 603.23 192.42 601.06 200.17 599.8 207.67 599.46 215.24 600.87 222.9 605.11 230.32 612.19 237.86 622.4 245.53 635.73 252.99 651.53 260.64 668.89 268.49 686.63 276.18 703.29 284.11 717.27 292.3 727.47 300.38 732.65 308.76 732.18 317.44 726.86 326.05 716.94 334.99 703.88 344.27 690.45 353.52 678.07 363.12 668.89 373.08 665.13 383.02 667.1 393.34 674.8 404.04 687.58 414.74 702.76 425.59 717.86 436.55 731.25 447.52 740.19 458.63 743.39 469.83 740.9 481.05 732.45 492.37 719.19 503.74 702.87 515.12 685.03 526.52 667.56 537.9 652.09 549.23 639.69 560.49 630.98 571.57 626.43 582.52 625.4 593.21 627.1 603.52 631.24 613.58 636.15 623.13 640.72 632.05 644.85 640.55 647.02 648.28 646.76 655.12 644.45 661.38 639.4 666.65 631.87 670.83 622.4 674.38 611.07 676.83 598.41 678.14 584.77 678.93 570.56 678.71 556.19 677.55 541.71 676.18 527.53 674.13 513.83 671.59 500.41 669.3 487.56 666.89 475.29 664.55 463.33 663.03 451.85 661.95 440.78 661.48 429.89 662.24 419.28 663.83 408.89 666.29 398.56 670.07 388.36 674.67 378.28 679.94 368.2 686.19 358.46 692.58 349.08 698.85 339.7 705.34 330.71 711.2 322.15 716.18 313.62 720.68 305.55 723.9 297.98 725.73 290.43 726.63 283.36 725.96 276.76 723.73 270.07 720.46 263.74 715.68 257.68 709.55 251.31 702.52 245.02 694.34 238.67 685.19 231.75 675.47 224.57 665.04 217.05 654.1 208.82 642.93 200.22 631.47 191.3 619.86 181.91 608.3 172.46 596.73 163.16 585.25 154.01 573.97 145.47 562.83 137.79 551.87 130.88 541.16 125.15 530.62 120.7 520.23 117.1 510.08 114.62 500.03 113.11 490.07 111.81 480.29 110.92 470.52 110.17 460.77 108.77 451.11 107.05 441.4 104.93 431.63 101.92 421.91 98.64 412.08 95.34 402.14 91.83 392.22 88.93 382.17 87.01 372.02 85.85 361.87 86.13 351.85 87.85 341.99 90.42 332.14 94.1 322.46 98.59 313.01 103.12 303.58 107.82 294.39 112.41 285.5 116.21 276.65 119.6 268.11 122.56 259.93 124.69 251.82 126.68 244.08 128.76 236.75 130.69 229.5 133.26 222.67 136.66 216.27 140.69 209.93 145.88 204.01 152.24 198.52 159.46 193.03 167.76 187.93 176.95 183.2 186.67 178.39 196.95 173.89 207.55 169.68 218.16 165.26 228.78 161.06 239.29 157.05 249.43 152.73 259.34 148.52 269.01 144.4 278.2 139.92 287.21 135.49 296.12 131.12 304.63 126.37 313.17 121.7 321.82 117.15 330.23 112.3 338.88 107.65 347.87 103.26 356.71 98.75 365.98 94.64 375.72 91.02 385.4 87.5 395.63 84.63 406.42 82.52" stroke-dasharray="2 12" transform="rotate(3.2857142857142856, 400, 400)" opacity="0.74"></path><path d="M415.27 93.19C425.9 91.4 436.78 90.5 447.89 90.5 459 90.91 470.31 92.25 481.73 94.46 493.09 97.1 504.44 100.57 515.62 104.82 526.53 109.4 537.03 114.66 546.87 120.52 556.12 126.58 564.37 133.12 571.39 140.08 577.48 147.06 582.09 154.36 585.1 161.91 587.22 169.36 587.9 176.98 587.37 184.74 586.72 192.31 585.67 199.98 584.8 207.73 585.35 215.26 587.28 222.87 591.23 230.55 597.96 238.01 607.34 245.58 619.41 253.27 633.89 260.76 650.07 268.41 666.97 276.23 683.47 283.9 698.25 291.78 709.97 299.89 717.85 307.89 720.9 316.15 718.78 324.69 712.47 333.15 702.3 341.93 689.66 351.01 677.11 360.05 665.84 369.42 657.72 379.13 654.68 388.82 656.89 398.87 664.31 409.28 676.38 419.68 690.68 430.21 705.05 440.84 718.08 451.48 727.24 462.22 731.29 473.03 730.21 483.85 723.53 494.73 712.12 505.63 697.45 516.51 680.77 527.38 663.75 538.17 647.93 548.9 634.39 559.49 623.89 569.85 617.05 580.07 613.56 589.97 612.94 599.46 615.05 608.67 618.52 617.35 622.39 625.38 628.08 636.43 629.41 653.58 623.32 659.35 616.72 662.32 608.13 664.27 597.93 665.21 586.56 665.73 574.22 665.36 561.31 664.18 547.96 662.87 534.54 661.01 521.27 658.73 508.04 656.77 495.18 654.74 482.78 652.81 470.55 651.67 458.77 650.95 447.45 650.8 436.26 651.8 425.45 653.54 414.98 656.06 404.56 659.78 394.42 664.23 384.55 669.28 374.68 675.22 365.27 681.27 356.33 687.19 347.37 693.36 338.88 698.94 330.85 703.72 322.8 708.11 315.21 711.35 308.08 713.31 300.87 714.46 294.06 714.16 287.6 712.43 280.94 709.75 274.49 705.66 268.16 700.27 261.43 694.04 254.63 686.67 247.66 678.35 240.1 669.44 232.23 659.79 224.03 649.57 215.23 639.08 206.14 628.22 196.87 617.13 187.33 606.02 177.92 594.83 168.85 583.65 160.11 572.59 152.13 561.63 145.14 550.79 138.97 540.14 134 529.63 130.28 519.27 127.32 509.09 125.39 499.03 124.28 489.08 123.25 479.27 122.5 469.52 121.77 459.81 120.32 450.19 118.48 440.57 116.21 430.93 113.05 421.34 109.62 411.7 106.17 402 102.54 392.32 99.53 382.58 97.5 372.77 96.25 362.97 96.45 353.34 98.09 343.91 100.61 334.49 104.28 325.27 108.79 316.3 113.42 307.34 118.26 298.65 123.03 290.26 127.08 281.9 130.7 273.86 133.87 266.18 136.16 258.54 138.2 251.27 140.18 244.4 141.86 237.57 144 231.13 146.8 225.11 150.06 219.1 154.37 213.48 159.78 208.26 166.01 203 173.34 198.09 181.66 193.51 190.63 188.82 200.31 184.4 210.49 180.23 220.89 175.85 231.49 171.65 242.13 167.6 252.61 163.25 262.96 159 273.13 154.83 282.95 150.3 292.59 145.83 302.08 141.42 311.23 136.66 320.32 131.99 329.43 127.44 338.3 122.62 347.3 118 356.53 113.66 365.61 109.21 375 105.15 384.77 101.59 394.48 98.12 404.63 95.29 415.26 93.19" stroke-dasharray="3 4" transform="rotate(6.571428571428571, 400, 400)" opacity="0.68"></path><path d="M421.61 103.86C431.99 102.07 442.47 101.14 453.01 101.06 463.53 101.39 474.05 102.59 484.47 104.65 494.78 107.11 504.86 110.38 514.53 114.4 523.9 118.75 532.64 123.77 540.56 129.38 547.91 135.2 554.19 141.51 559.24 148.25 563.58 155.04 566.61 162.16 568.36 169.55 569.63 176.87 569.94 184.39 569.6 192.06 569.66 199.58 569.89 207.21 570.83 214.93 573.47 222.46 577.76 230.08 584.14 237.77 593.05 245.26 604.28 252.85 617.63 260.54 632.67 268.05 648.65 275.7 664.6 283.5 679.51 291.16 692.25 299 701.67 307.03 707.33 314.96 708.46 323.13 704.94 331.54 697.89 339.88 687.65 348.49 675.55 357.38 663.92 366.23 653.76 375.39 646.65 384.85 644.27 394.3 646.68 404.07 653.81 414.17 665.19 424.27 678.65 434.46 692.28 444.73 704.9 455 714.17 465.35 718.94 475.73 719.12 486.11 714.11 496.52 704.52 506.89 691.58 517.24 676.25 527.53 660 537.69 644.23 547.77 629.99 557.66 618.13 567.29 609.33 576.75 603.58 585.85 600.63 594.51 600.51 602.89 602.15 610.72 604.78 617.9 609.87 627.71 614.36 642.63 611.48 647.48 607.43 649.94 601.44 651.49 593.77 652.14 584.88 652.46 574.75 652.01 563.74 650.86 552.08 649.67 539.99 648.01 527.75 646.03 515.32 644.4 503 642.74 490.95 641.2 478.93 640.42 467.26 640.05 455.98 640.19 444.78 641.4 433.96 643.27 423.52 645.83 413.12 649.49 403.06 653.79 393.35 658.61 383.63 664.25 374.45 669.96 365.78 675.56 357.08 681.4 348.86 686.7 341.1 691.29 333.27 695.55 325.87 698.76 318.85 700.83 311.68 702.18 304.81 702.22 298.17 700.93 291.25 698.79 284.42 695.33 277.58 690.65 270.29 685.17 262.85 678.61 255.18 671.08 246.96 662.99 238.46 654.13 229.67 644.66 220.44 634.88 211.06 624.67 201.65 614.18 192.2 603.59 183.04 592.85 174.4 582.07 166.26 571.34 159 560.64 152.8 550.01 147.44 539.53 143.26 529.14 140.25 518.88 137.91 508.78 136.45 498.77 135.67 488.88 134.85 479.12 134.16 469.42 133.39 459.8 131.84 450.26 129.86 440.74 127.41 431.25 124.09 421.81 120.52 412.36 116.94 402.9 113.22 393.47 110.12 384 108 374.53 106.67 365.07 106.78 355.81 108.32 346.78 110.77 337.76 114.39 328.97 118.89 320.45 123.57 311.93 128.54 303.7 133.48 295.77 137.76 287.86 141.65 280.28 145.07 273.04 147.59 265.83 149.77 258.98 151.76 252.5 153.32 246.04 155.15 239.95 157.47 234.24 160.07 228.52 163.56 223.16 168.05 218.15 173.26 213.08 179.56 208.31 186.86 203.85 194.88 199.24 203.73 194.87 213.23 190.72 223.11 186.35 233.38 182.13 243.85 178.04 254.35 173.66 264.86 169.36 275.29 165.13 285.52 160.57 295.62 156.06 305.58 151.62 315.28 146.86 324.88 142.19 334.44 137.65 343.79 132.88 353.18 128.31 362.67 124.01 372.04 119.64 381.6 115.65 391.4 112.14 401.16 108.74 411.22 105.95 421.6 103.86" stroke-dasharray="4 10" transform="rotate(9.857142857142856, 400, 400)" opacity="0.33"></path><path d="M424.41 114.52C434.46 112.75 444.42 111.78 454.25 111.64 464.05 111.88 473.65 112.96 482.96 114.85 492.13 117.13 500.87 120.19 509.04 123.98 516.9 128.1 524.01 132.87 530.23 138.22 535.98 143.79 540.71 149.85 544.33 156.34 547.5 162.92 549.65 169.84 550.88 177.03 552.04 184.2 552.73 191.58 553.27 199.12 554.61 206.55 556.55 214.12 559.56 221.78 564.38 229.28 570.92 236.87 579.44 244.54 590.09 252.04 602.61 259.63 616.65 267.31 631.68 274.83 646.95 282.47 661.53 290.24 674.61 297.88 685.18 305.68 692.35 313.64 695.95 321.51 695.39 329.58 690.73 337.87 683.17 346.09 673.03 354.55 661.57 363.25 650.9 371.92 641.82 380.86 635.66 390.08 633.9 399.27 636.48 408.76 643.31 418.54 654.02 428.31 666.66 438.15 679.55 448.03 691.71 457.92 701.01 467.84 706.37 477.75 707.67 487.66 704.19 497.55 696.37 507.37 685.19 517.15 671.37 526.83 656.16 536.33 640.81 545.74 626.3 554.92 613.51 563.79 603.15 572.5 595.41 580.81 590.28 588.65 587.89 596.23 587.48 603.25 588.44 609.62 594.77 624.75 592.98 637.93 585.77 638.97 579.3 639.17 571.48 638.69 562.57 637.63 552.93 636.58 542.57 635.16 531.77 633.49 520.64 632.18 509.35 630.89 498.09 629.73 486.75 629.3 475.57 629.24 464.66 629.65 453.78 631.04 443.18 633.03 432.93 635.61 422.71 639.2 412.8 643.35 403.24 647.94 393.67 653.28 384.63 658.68 376.09 663.95 367.5 669.46 359.37 674.49 351.65 678.87 343.83 682.98 336.36 686.16 329.19 688.29 321.82 689.81 314.64 690.13 307.58 689.24 300.21 687.59 292.82 684.71 285.35 680.68 277.44 675.93 269.34 670.12 261.01 663.38 252.23 656.08 243.23 648.02 234.04 639.32 224.6 630.27 215.16 620.76 205.87 610.91 196.73 600.91 188.06 590.71 180.06 580.39 172.67 570.07 166.24 559.72 160.9 549.4 156.38 539.17 152.98 529 150.66 518.93 148.86 508.97 147.81 499.1 147.28 489.34 146.57 479.68 145.89 470.1 145.02 460.6 143.32 451.18 141.17 441.81 138.53 432.49 135.06 423.22 131.35 413.97 127.66 404.76 123.86 395.57 120.69 386.39 118.49 377.24 117.09 368.1 117.1 359.19 118.54 350.55 120.9 341.9 124.44 333.51 128.89 325.4 133.6 317.29 138.64 309.47 143.74 301.97 148.25 294.47 152.41 287.29 156.11 280.45 158.92 273.62 161.32 267.13 163.43 260.99 164.99 254.86 166.65 249.06 168.63 243.62 170.7 238.13 173.49 232.98 177.12 228.14 181.36 223.21 186.61 218.55 192.84 214.16 199.78 209.61 207.62 205.27 216.21 201.12 225.3 196.73 234.92 192.48 244.91 188.35 255.09 183.93 265.43 179.58 275.82 175.3 286.17 170.71 296.47 166.17 306.67 161.71 316.72 156.96 326.67 152.3 336.54 147.79 346.26 143.07 355.95 138.56 365.65 134.33 375.25 130.03 384.93 126.12 394.71 122.67 404.45 119.34 414.35 116.59 424.4 114.53" stroke-dasharray="1 11" transform="rotate(13.142857142857142, 400, 400)" opacity="0.16"></path><path d="M423.22 125.19C432.84 123.43 442.2 122.44 451.26 122.23 460.28 122.38 468.93 123.34 477.13 125.07 485.19 127.17 492.69 130.03 499.52 133.58 506.09 137.45 511.88 141.96 516.8 147.04 521.41 152.35 525.11 158.15 527.94 164.37 530.59 170.71 532.54 177.39 533.97 184.37 535.68 191.34 537.33 198.55 539.26 205.94 542.24 213.25 546.12 220.7 551.24 228.26 558.1 235.7 566.59 243.24 576.8 250.85 588.67 258.33 601.89 265.89 616.03 273.54 630.5 281.05 644.62 288.66 657.54 296.39 668.61 303.99 677.01 311.74 682.04 319.63 683.77 327.43 681.76 335.41 676.21 343.56 668.35 351.66 658.48 359.96 647.76 368.48 638.06 376.97 630.01 385.69 624.76 394.64 623.55 403.58 626.27 412.78 632.82 422.21 642.88 431.65 654.71 441.12 666.87 450.59 678.53 460.06 687.77 469.53 693.59 478.95 695.86 488.37 693.79 497.71 687.64 506.95 678.22 516.14 666.01 525.19 652.05 534.02 637.46 542.75 623.08 551.22 609.79 559.34 598.31 567.3 588.97 574.85 581.91 581.91 576.09 591.86 575.3 608.24 577.47 614.44 579.22 622.18 567.04 625.68 557.37 624.51 549.8 623.65 541.35 622.48 532.25 621.11 522.72 620.14 512.8 619.2 502.67 618.4 492.38 618.29 482.05 618.52 471.8 619.18 461.53 620.73 451.41 622.8 441.51 625.41 431.63 628.91 421.98 632.9 412.59 637.27 403.21 642.32 394.27 647.41 385.76 652.37 377.21 657.56 369.03 662.31 361.18 666.47 353.22 670.43 345.51 673.54 338 675.72 330.29 677.37 322.66 677.93 315.06 677.38 307.16 676.17 299.18 673.82 291.07 670.39 282.6 666.31 273.94 661.22 265.09 655.24 255.94 648.72 246.66 641.43 237.34 633.5 227.95 625.21 218.72 616.42 209.81 607.25 201.22 597.9 193.23 588.28 186.03 578.5 179.52 568.67 173.99 558.76 169.55 548.82 165.87 538.93 163.21 529.06 161.49 519.25 160.16 509.53 159.42 499.87 159.06 490.3 158.39 480.81 157.63 471.41 156.61 462.09 154.74 452.83 152.38 443.64 149.55 434.53 145.93 425.45 142.11 416.43 138.32 407.47 134.47 398.52 131.25 389.63 128.99 380.79 127.52 371.96 127.44 363.4 128.75 355.1 131 346.81 134.43 338.79 138.8 331.06 143.49 323.32 148.59 315.88 153.79 308.75 158.52 301.62 162.94 294.8 166.94 288.31 170.08 281.81 172.76 275.63 175.09 269.79 177.58 261.15 183 245.35 187.03 238.14 190.38 233.32 194.63 228.74 199.79 224.4 205.61 219.88 212.33 215.54 219.85 211.37 227.94 206.97 236.66 202.68 245.88 198.5 255.42 194.04 265.26 189.65 275.28 185.33 285.4 180.71 295.57 176.16 305.72 171.69 315.83 166.95 325.88 162.32 335.84 157.85 345.73 153.19 355.55 148.75 365.29 144.6 375 140.39 384.67 136.56 394.31 133.19 403.95 129.93 413.58 127.24 423.2 125.19" stroke-dasharray="6 16" transform="rotate(16.42857142857143, 400, 400)" opacity="0.14"></path><path d="M418.22 135.86C427.33 134.11 436.06 133.1 444.35 132.83 452.61 132.9 460.37 133.74 467.59 135.31 474.69 137.24 481.17 139.89 486.96 143.2 492.57 146.82 497.45 151.07 501.57 155.87 505.55 160.89 508.83 166.41 511.49 172.35 514.23 178.42 516.6 184.85 518.81 191.58 521.56 198.33 524.59 205.33 528.2 212.53 532.96 219.68 538.75 226.98 545.82 234.41 554.42 241.75 564.43 249.19 575.79 256.72 588.31 264.13 601.64 271.64 615.31 279.22 628.78 286.68 641.39 294.25 652.42 301.9 661.43 309.46 667.69 317.13 670.75 324.93 670.84 332.65 667.65 340.52 661.46 348.53 653.5 356.5 644.04 364.64 634.1 372.96 625.38 381.25 618.35 389.74 613.94 398.42 613.24 407.1 616.07 415.98 622.32 425.07 631.75 434.15 642.8 443.23 654.22 452.27 665.36 461.31 674.47 470.3 680.62 479.21 683.71 488.11 682.91 496.9 678.32 505.54 670.63 514.14 660.09 522.54 647.55 530.7 633.98 538.75 620.11 546.52 606.75 553.92 594.59 561.16 584.06 567.97 575.41 574.3 566.66 583.18 560.27 597.6 560.57 602.96 558.68 611.04 539.24 610.42 528.56 608.92 520.74 608.27 512.35 607.66 503.56 607.2 494.54 607.39 485.3 607.89 475.94 608.77 466.51 610.46 457.07 612.6 447.7 615.21 438.32 618.62 429.04 622.45 419.89 626.6 410.74 631.37 401.92 636.15 393.41 640.8 384.87 645.68 376.59 650.16 368.53 654.1 360.37 657.89 352.35 660.92 344.43 663.1 336.33 664.85 328.24 665.61 320.11 665.36 311.73 664.53 303.24 662.66 294.62 659.79 285.74 656.32 276.72 651.91 267.6 646.64 258.33 640.87 249.05 634.35 239.88 627.17 230.81 619.65 222.06 611.6 213.78 603.13 205.94 594.46 198.82 585.48 192.55 576.28 186.98 567.01 182.39 557.6 178.84 548.12 175.94 538.65 173.94 529.15 172.75 519.69 171.78 510.27 171.25 500.89 170.96 491.59 170.25 482.34 169.36 473.17 168.14 464.08 166.06 455.04 163.49 446.07 160.47 437.19 156.71 428.35 152.79 419.57 148.93 410.87 145.05 402.19 141.8 393.58 139.49 385.06 137.96 376.54 137.78 368.29 138.97 360.34 141.08 352.37 144.38 344.69 148.63 337.31 153.27 329.91 158.36 322.81 163.65 316.02 168.55 309.21 173.22 302.7 177.52 296.51 181 290.3 184.03 284.39 186.64 278.79 189.42 270.47 194.45 255.17 197.73 248.11 200.34 243.37 203.71 238.84 207.88 234.51 212.6 230.01 218.18 225.66 224.56 221.46 231.5 217.03 239.14 212.7 247.36 208.47 255.99 203.98 265.04 199.55 274.38 195.2 283.93 190.57 293.65 186.01 303.42 181.55 313.27 176.84 323.12 172.26 332.89 167.84 342.68 163.26 352.39 158.9 361.99 154.82 371.58 150.72 381.07 146.98 390.45 143.69 399.83 140.51 409.09 137.88 418.21 135.86" stroke-dasharray="15 4" transform="rotate(19.71428571428571, 400, 400)" opacity="0.51"></path><path d="M410.24 146.53C418.8 144.8 426.89 143.77 434.49 143.45 442.05 143.44 449.07 144.16 455.52 145.58 461.89 147.33 467.65 149.77 472.78 152.84 477.82 156.22 482.25 160.19 486.1 164.7 489.96 169.44 493.35 174.66 496.41 180.3 499.74 186.08 503 192.23 506.39 198.68 510.48 205.19 515.08 211.95 520.42 218.92 526.88 225.87 534.38 232.99 543.05 240.24 552.94 247.43 563.93 254.74 575.86 262.14 588.44 269.45 601.35 276.86 614.07 284.34 626.15 291.73 637.02 299.2 646.05 306.76 653 314.24 657.26 321.82 658.55 329.5 657.26 337.11 653.14 344.85 646.54 352.71 638.67 360.53 629.74 368.49 620.65 376.6 612.9 384.68 606.82 392.92 603.2 401.32 602.95 409.71 605.87 418.27 611.82 426.99 620.64 435.7 630.94 444.37 641.63 452.97 652.22 461.56 661.11 470.07 667.49 478.46 671.26 486.83 671.57 495.06 668.43 503.1 662.38 511.09 653.51 518.86 642.51 526.36 630.19 533.76 617.13 540.84 604.09 547.54 591.71 554.1 580.43 560.23 570.6 565.88 562.54 571.33 556.19 576.25 551.42 580.6 543.14 597.11 529.03 597.97 520.71 596.92 514.5 596.58 507.62 596.29 500.18 596.15 492.52 596.61 484.46 597.35 476.12 598.42 467.67 600.22 459.05 602.42 450.32 605.01 441.57 608.33 432.76 612 423.93 615.93 415.09 620.43 406.44 624.91 397.97 629.26 389.47 633.83 381.1 638.04 372.84 641.76 364.51 645.37 356.22 648.3 347.95 650.47 339.54 652.27 331.08 653.19 322.54 653.2 313.84 652.7 305.03 651.25 296.12 648.88 287.08 645.98 277.98 642.2 268.88 637.61 259.78 632.54 250.81 626.75 242.08 620.33 233.61 613.55 225.58 606.24 218.13 598.49 211.21 590.52 205.06 582.21 199.79 573.64 195.19 564.97 191.52 556.12 188.79 547.16 186.59 538.17 185.16 529.12 184.38 520.07 183.67 511.03 183.25 502 182.93 493.03 182.11 484.09 181.03 475.21 179.58 466.4 177.27 457.63 174.48 448.93 171.28 440.32 167.4 431.74 163.39 423.23 159.49 414.82 155.59 406.42 152.33 398.1 149.98 389.88 148.4 381.66 148.13 373.73 149.18 366.09 151.15 358.44 154.28 351.08 158.39 344 162.92 336.92 167.98 330.12 173.29 323.62 178.33 317.1 183.22 310.87 187.79 304.94 191.63 298.97 195.02 293.28 197.98 287.88 201.19 279.83 206.3 264.9 209.1 257.95 212.49 251.01 223.11 237.76 230.61 231.34 236.37 226.88 242.85 222.52 249.94 218.25 257.47 213.73 265.49 209.28 273.9 204.9 282.61 200.28 291.56 195.73 300.68 191.29 309.95 186.63 319.28 182.1 328.6 177.75 337.99 173.26 347.33 168.99 356.55 165.01 365.81 161.01 374.94 157.37 383.9 154.17 392.88 151.08 401.67 148.51 410.23 146.53" stroke-dasharray="15 11" transform="rotate(23, 400, 400)" opacity="0.78"></path><path d="M400.58 157.2C408.57 155.49 416.08 154.45 423.09 154.08 430.08 154 436.55 154.6 442.48 155.87 451.07 158.56 465.69 167.49 471.93 173.55 476.1 177.99 480.04 182.9 483.9 188.24 488.15 193.71 492.58 199.56 497.34 205.71 502.85 211.93 508.98 218.42 515.91 225.13 523.81 231.84 532.65 238.74 542.43 245.78 553.09 252.79 564.5 259.92 576.41 267.15 588.53 274.32 600.52 281.58 611.92 288.92 622.35 296.19 631.32 303.55 638.33 310.97 643.31 318.33 645.76 325.78 645.51 333.32 643.1 340.8 638.31 348.38 631.54 356.06 623.91 363.7 615.6 371.47 607.39 379.34 600.6 387.19 595.44 395.17 592.54 403.27 592.7 411.36 595.67 419.58 601.33 427.91 609.56 436.24 619.12 444.49 629.09 452.62 639.1 460.76 647.72 468.77 654.21 476.63 658.52 484.47 659.79 492.14 657.95 499.59 653.45 506.99 646.23 514.14 636.82 521 625.9 527.77 613.93 534.21 601.54 540.26 589.35 546.18 577.78 551.68 567.21 556.71 557.98 561.57 550.15 565.93 543.74 569.75 530.9 582.2 524.3 586.56 520.62 586.11 515.73 585.73 501.59 585.07 492.61 585.23 486.22 585.94 479.31 586.89 471.98 588.13 464.56 590.03 456.8 592.26 448.78 594.83 440.74 598.04 432.48 601.54 424.05 605.27 415.61 609.49 407.21 613.68 398.85 617.74 390.48 622.01 382.12 625.95 373.77 629.44 365.37 632.87 356.94 635.68 348.46 637.81 339.9 639.65 331.27 640.68 322.56 640.9 313.77 640.69 304.91 639.61 296.01 637.69 287.1 635.31 278.22 632.1 269.45 628.13 260.83 623.74 252.45 618.65 244.43 612.93 236.78 606.89 229.66 600.3 223.19 593.27 217.29 586.02 212.16 578.4 207.9 570.49 204.24 562.45 201.42 554.21 199.43 545.81 197.82 537.36 196.83 528.82 196.33 520.23 195.76 511.64 195.35 503.02 194.92 494.44 193.91 485.87 192.6 477.33 190.88 468.86 188.34 460.41 185.34 452.02 181.96 443.71 177.98 435.43 173.91 427.22 169.98 419.1 166.1 411 162.84 402.98 160.48 395.07 158.85 387.16 158.49 379.54 159.4 372.2 161.2 364.85 164.15 357.78 168.08 351 172.48 344.2 177.44 337.68 182.74 331.44 187.86 325.17 192.91 319.18 197.73 313.46 201.9 307.7 205.67 302.21 209.02 296.97 212.77 289.14 218.4 274.49 221.01 267.61 223.79 260.72 232.19 247.45 238.2 240.98 242.83 236.51 248.14 232.12 254.07 227.81 260.41 223.28 267.3 218.82 274.62 214.44 282.27 209.83 290.25 205.32 298.47 200.91 306.89 196.31 315.45 191.86 324.07 187.58 332.81 183.19 341.53 179.03 350.18 175.16 358.89 171.27 367.48 167.75 375.9 164.64 384.34 161.64 392.59 159.14 400.57 157.2" stroke-dasharray="7 14" transform="rotate(26.285714285714285, 400, 400)" opacity="0.69"></path><path d="M390.83 167.87C398.26 166.19 405.26 165.14 411.83 164.72 418.39 164.57 424.5 165.07 430.19 166.19 438.52 168.61 453.48 176.8 460.41 182.43 465.19 186.57 469.96 191.16 474.83 196.17 480.16 201.33 485.82 206.85 491.93 212.68 498.73 218.6 506.18 224.79 514.35 231.2 523.29 237.64 532.98 244.28 543.33 251.07 554.21 257.85 565.46 264.76 576.83 271.78 588.02 278.76 598.72 285.83 608.51 292.99 617.14 300.1 624.17 307.29 629.23 314.54 632.4 321.75 633.26 329.03 631.75 336.38 628.48 343.7 623.27 351.09 616.52 358.56 609.28 366 601.67 373.54 594.36 381.15 588.49 388.75 584.19 396.45 581.95 404.22 582.47 411.99 585.47 419.86 590.83 427.79 598.49 435.72 607.34 443.54 616.61 451.21 626.02 458.88 634.31 466.4 640.82 473.74 645.53 481.06 647.61 488.17 646.92 495.04 643.84 501.87 638.2 508.43 630.38 514.69 620.97 520.86 610.27 526.69 598.84 532.15 587.21 537.49 575.76 542.41 564.9 546.89 554.94 551.23 546.05 555.1 538.32 558.47 523.57 566.29 512.36 572.87 510.07 573.49 504.14 573.78 489.03 573.89 481.55 574.45 476.2 575.37 470.3 576.51 463.89 577.89 457.4 579.86 450.48 582.12 443.18 584.64 435.85 587.75 428.19 591.09 420.23 594.6 412.27 598.56 404.21 602.47 396.08 606.25 387.95 610.23 379.74 613.89 371.46 617.17 363.16 620.4 354.78 623.08 346.33 625.15 337.85 626.99 329.3 628.11 320.69 628.5 312.1 628.52 303.49 627.76 294.91 626.24 286.44 624.32 278.08 621.63 269.95 618.24 262.05 614.46 254.51 610.03 247.41 605 240.74 599.65 234.65 593.78 229.25 587.46 224.39 580.91 220.28 573.98 216.98 566.75 214.17 559.38 212.09 551.76 210.71 543.97 209.55 536.1 208.87 528.1 208.52 520.03 207.98 511.93 207.47 503.79 206.85 495.64 205.61 487.49 204.03 479.35 202.03 471.25 199.25 463.17 196.05 455.13 192.52 447.17 188.46 439.22 184.36 431.33 180.43 423.54 176.58 415.75 173.35 408.05 170.98 400.45 169.32 392.85 168.86 385.53 169.63 378.48 171.25 371.42 174 364.63 177.72 358.11 181.94 351.58 186.77 345.3 191.99 339.3 197.14 333.26 202.31 327.47 207.32 321.94 211.79 316.37 215.91 311.02 219.65 305.92 224.03 298.27 230.52 283.85 233.21 277.02 235.72 270.15 242.55 256.86 247.32 250.36 250.97 245.88 255.23 241.47 260.07 237.14 265.25 232.62 270.97 228.16 277.16 223.79 283.66 219.23 290.54 214.76 297.72 210.4 305.13 205.89 312.74 201.52 320.49 197.34 328.37 193.07 336.3 189.02 344.22 185.26 352.21 181.51 360.13 178.09 367.92 175.09 375.74 172.19 383.39 169.76 390.82 167.87" stroke-dasharray="13 9" transform="rotate(29.571428571428573, 400, 400)" opacity="0.17"></path><path d="M382.58 178.53C389.49 176.89 396.08 175.84 402.34 175.38 411.58 175.37 428.61 178.7 436.58 181.98 441.95 184.6 447.23 187.74 452.5 191.36 458.03 195.19 463.7 199.46 469.62 204.13 475.98 208.95 482.73 214.13 489.97 219.62 497.78 225.21 506.17 231.07 515.14 237.16 524.63 243.3 534.63 249.64 545 256.14 555.56 262.65 566.16 269.3 576.53 276.07 586.43 282.81 595.57 289.66 603.59 296.59 610.37 303.49 615.52 310.47 618.77 317.51 620.34 324.52 619.86 331.6 617.37 338.73 613.5 345.84 608.1 353.01 601.54 360.24 594.82 367.45 587.96 374.72 581.55 382.05 576.57 389.37 573.07 396.76 571.44 404.19 572.26 411.63 575.27 419.12 580.33 426.64 587.44 434.16 595.6 441.54 604.18 448.75 612.98 455.95 620.89 462.98 627.33 469.8 632.32 476.6 635.04 483.18 635.35 489.51 633.55 495.79 629.39 501.79 623.12 507.48 615.27 513.1 605.98 518.38 595.72 523.29 584.96 528.1 574.02 532.52 563.28 536.52 553.06 540.41 543.54 543.86 534.89 546.86 523.94 550.96 508.19 556.81 502.78 558.63 490.18 561.3 474.67 562.88 468.19 563.8 463.59 564.92 458.45 566.21 452.79 567.71 447.08 569.74 440.89 571.99 434.26 574.47 427.6 577.45 420.54 580.63 413.1 583.93 405.66 587.63 398.03 591.27 390.26 594.78 382.51 598.47 374.61 601.87 366.6 604.92 358.6 607.95 350.5 610.49 342.32 612.49 334.17 614.3 325.98 615.47 317.78 615.99 309.65 616.21 301.58 615.72 293.63 614.55 285.85 613.02 278.28 610.81 271.02 607.94 264.06 604.73 257.51 600.9 251.48 596.51 245.86 591.83 240.86 586.64 236.53 581 232.67 575.15 229.51 568.91 227.05 562.35 224.97 555.65 223.49 548.68 222.55 541.51 221.71 534.25 221.18 526.84 220.86 519.32 220.23 511.76 219.54 504.12 218.67 496.45 217.15 488.77 215.28 481.08 213 473.4 209.99 465.72 206.61 458.08 202.95 450.48 198.84 442.9 194.73 435.37 190.83 427.92 187.03 420.47 183.83 413.09 181.47 405.81 179.79 398.53 179.25 391.51 179.87 384.74 181.31 377.97 183.84 371.45 187.32 365.18 191.33 358.9 195.98 352.85 201.07 347.05 206.19 341.22 211.4 335.62 216.55 330.26 221.26 324.84 225.7 319.63 229.81 314.64 234.83 307.14 242.46 292.9 245.47 286.11 248.01 279.27 253.97 265.97 257.86 259.45 260.74 254.97 264.13 250.56 268.03 246.24 272.17 241.73 276.83 237.3 281.94 232.96 287.31 228.46 293.09 224.05 299.21 219.77 305.53 215.36 312.12 211.1 318.9 207.02 325.82 202.88 332.87 198.97 339.98 195.33 347.15 191.71 354.33 188.42 361.45 185.52 368.6 182.72 375.65 180.38 382.57 178.54" stroke-dasharray="14 9" transform="rotate(32.85714285714286, 400, 400)" opacity="0.52"></path><path d="M377.18 189.2C383.64 187.6 389.9 186.55 395.98 186.05 402.06 185.78 407.96 186.08 413.72 186.92 419.53 188.01 425.26 189.64 430.94 191.78 436.76 194.15 442.64 197.01 448.64 200.33 454.89 203.85 461.39 207.79 468.19 212.12 475.36 216.6 482.93 221.43 490.94 226.56 499.35 231.8 508.21 237.31 517.46 243.05 526.99 248.86 536.77 254.87 546.64 261.04 556.41 267.25 565.95 273.6 574.98 280.07 583.35 286.54 590.78 293.11 596.98 299.77 601.96 306.42 605.37 313.14 607.02 319.93 607.24 326.7 605.71 333.52 602.5 340.4 598.29 347.26 592.9 354.17 586.69 361.13 580.57 368.07 574.5 375.05 568.98 382.07 564.85 389.09 562.08 396.14 561 403.22 562.08 410.29 565.06 417.39 569.84 424.5 576.41 431.6 583.91 438.54 591.81 445.29 600 452.03 607.48 458.57 613.78 464.9 620.53 474.23 621.2 491.58 615 499.49 608.68 504.6 600.87 509.39 591.93 513.81 582.3 518.16 572.18 522.14 561.95 525.73 551.89 529.23 542.19 532.33 533.06 535.02 524.65 537.64 517 539.86 510.12 541.68 501.45 544.17 488.28 547.4 483.13 548.31 474.44 549.74 460.09 552.04 454.07 553.29 447.56 555.28 432.15 560.76 423.29 564.3 417.22 567.16 410.72 570.16 403.83 573.26 396.93 576.72 389.81 580.09 382.52 583.33 375.25 586.74 367.81 589.89 360.27 592.71 352.75 595.54 345.15 597.93 337.5 599.84 329.92 601.6 322.33 602.8 314.79 603.41 307.38 603.78 300.09 603.52 293 602.64 286.12 601.47 279.52 599.66 273.29 597.26 267.37 594.57 261.9 591.3 256.97 587.5 252.42 583.44 248.46 578.89 245.13 573.91 242.17 568.73 239.82 563.16 238.06 557.26 236.54 551.22 235.49 544.91 234.84 538.37 234.14 531.74 233.64 524.93 233.22 517.98 232.42 510.99 231.48 503.89 230.3 496.73 228.48 489.56 226.31 482.34 223.75 475.11 220.54 467.88 217 460.66 213.25 453.47 209.12 446.28 205.03 439.13 201.17 432.03 197.44 424.94 194.31 417.91 191.97 410.96 190.27 404 189.65 397.28 190.12 390.8 191.38 384.31 193.67 378.05 196.89 372.02 200.65 365.98 205.08 360.15 209.99 354.54 215 348.91 220.19 343.48 225.4 338.26 230.29 332.98 234.99 327.9 239.42 323 245.07 315.64 253.98 301.58 257.5 294.82 260.35 288.02 266.13 274.75 269.5 268.23 273.25 261.58 283.02 248.43 289.09 241.95 293.46 237.53 298.23 233.21 303.36 229.02 308.64 224.72 314.24 220.58 320.09 216.63 326.04 212.63 332.19 208.86 338.48 205.36 344.82 201.88 351.26 198.72 357.72 195.94 364.21 193.25 370.71 190.99 377.17 189.21" stroke-dasharray="12 11" transform="rotate(36.14285714285714, 400, 400)" opacity="0.25"></path><path d="M375.51 199.87C381.59 198.31 387.6 197.27 393.55 196.74 399.52 196.42 405.46 196.62 411.38 197.34 417.36 198.27 423.38 199.71 429.48 201.63 435.71 203.76 442.11 206.35 448.69 209.37 455.5 212.58 462.58 216.19 469.97 220.17 477.62 224.3 485.62 228.76 493.94 233.53 502.5 238.4 511.34 243.54 520.37 248.92 529.45 254.36 538.54 260.01 547.48 265.83 556.11 271.7 564.28 277.71 571.76 283.85 578.48 290 584.17 296.26 588.62 302.61 591.94 308.96 593.79 315.39 594.11 321.88 593.25 328.36 590.93 334.9 587.29 341.48 582.95 348.05 577.75 354.66 572.03 361.31 566.56 367.94 561.31 374.61 556.65 381.29 553.31 387.97 551.22 394.67 550.62 401.37 551.92 408.07 554.86 414.77 559.34 421.45 565.39 428.13 572.26 434.62 579.5 440.91 587.07 447.2 594.1 453.27 600.17 459.12 607.15 467.73 610.23 483.63 606 490.84 601.15 495.49 594.82 499.83 587.3 503.83 578.94 507.78 569.91 511.38 560.5 514.62 550.97 517.8 541.52 520.62 532.35 523.07 523.59 525.48 515.36 527.54 507.71 529.25 497.53 531.65 480.96 535 474.19 536.09 463.01 538.09 446.81 541.37 440.81 542.9 434.52 545.08 420.08 550.68 411.88 554.13 406.27 556.86 400.28 559.7 393.92 562.59 387.56 565.8 381 568.92 374.28 571.9 367.57 575.05 360.74 577.94 353.81 580.55 346.93 583.17 340 585.4 333.07 587.2 326.24 588.89 319.45 590.09 312.77 590.76 306.25 591.24 299.9 591.17 293.81 590.53 285.17 588.94 270.2 582.61 264.13 577.97 259.05 572.51 251.99 559.16 249.89 551.44 248.75 546.05 247.95 540.38 247.42 534.47 246.73 528.47 246.12 522.27 245.5 515.91 244.44 509.5 243.2 502.96 241.68 496.34 239.56 489.69 237.09 482.98 234.28 476.23 230.88 469.47 227.23 462.7 223.41 455.93 219.29 449.17 215.25 442.41 211.46 435.7 207.83 428.99 204.77 422.31 202.47 415.7 200.76 409.08 200.07 402.67 200.4 396.47 201.46 390.27 203.51 384.27 206.45 378.47 209.94 372.66 214.09 367.05 218.77 361.63 223.62 356.18 228.71 350.91 233.91 345.83 238.89 340.7 243.77 335.73 248.46 330.93 254.66 323.7 264.89 309.81 269.04 303.11 272.41 296.36 278.61 283.17 281.84 276.69 285.17 270.1 293.4 257.12 298.45 250.76 302.02 246.44 305.97 242.22 310.28 238.15 314.67 233.99 319.4 229.98 324.41 226.17 329.49 222.33 334.82 218.71 340.36 215.35 345.93 212.03 351.68 209.01 357.55 206.34 363.43 203.77 369.43 201.6 375.5 199.87" stroke-dasharray="7 15" transform="rotate(39.42857142857142, 400, 400)" opacity="0.99"></path><path d="M377.85 210.54C383.6 209.03 389.41 208 395.27 207.45 401.15 207.08 407.11 207.2 413.15 207.79 425.41 209.57 438.32 213.2 452.01 218.49 466.31 224.45 481.69 231.9 497.93 240.55 514.45 249.64 531.11 259.74 546.83 270.56 560.81 281.58 571.83 293.2 578.51 305.18 581.27 317.21 578.92 329.55 571.87 342.04 563.17 354.53 553.23 367.17 544.57 379.81 541.97 386.13 540.49 392.45 540.3 398.76 541.78 405.07 544.66 411.35 548.84 417.6 554.4 423.85 560.66 429.9 567.26 435.75 574.21 441.59 580.76 447.21 586.55 452.6 595.87 463.33 599.2 473.07 596.1 481.68 587.92 490.13 574.74 497.39 558.52 503.34 541.03 509.14 523.5 513.69 507.16 516.98 492.54 520.33 479.8 522.68 468.72 524.18 459.32 526.19 450.69 527.79 442.24 529.2 434.41 531.7 425.96 534.42 416.58 537.48 409.43 540.62 393.65 547.89 385.02 551.92 379.16 554.9 373.16 557.77 367.05 560.5 360.96 563.38 354.8 566.04 348.6 568.42 336.35 573.24 324.2 576.52 312.63 578.07 301.65 579.01 291.69 577.93 283.24 574.87 275.75 570.99 270.01 565.21 266.2 557.8 262.96 549.72 261.08 540.27 260.11 529.77 258.18 518.92 255.91 507.28 252.76 495.16 247.35 482.92 240.76 470.36 233.44 457.72 229.36 451.39 225.4 445.06 221.71 438.74 218.19 432.42 215.22 426.12 212.96 419.85 211.26 413.58 210.5 407.49 210.69 401.58 211.56 395.67 213.36 389.93 216.01 384.38 222.83 373.22 231.89 362.71 242.09 352.86 251.84 342.84 261.21 333.35 269.73 324.4 276.43 315.13 282.29 306.26 287.64 297.78 291.74 288.87 296.17 280.26 301.3 271.99 306.19 263.3 312.29 254.97 319.65 247.16 327.16 239.1 335.9 231.72 345.7 225.31 350.63 222.14 355.79 219.27 361.15 216.73 366.52 214.28 372.09 212.2 377.84 210.54" stroke-dasharray="8 5" transform="rotate(42.714285714285715, 400, 400)" opacity="0.31"></path><path d="M383.82 221.21C394.77 218.45 406.3 217.5 418.37 218.28 430.63 219.76 443.68 222.96 457.47 227.68 471.6 233.04 486.48 239.78 501.72 247.67 516.72 255.99 531.21 265.28 544.15 275.29 555.12 285.53 562.98 296.36 566.76 307.57 567.31 318.86 563.65 330.47 556.38 342.22 548.36 353.99 539.8 365.89 532.74 377.75 530.13 389.63 531.91 401.47 538.35 413.1 549.46 424.73 561.8 435.57 572.92 445.5 582.18 455.38 586.51 464.3 585.34 472.15 579.75 479.9 569.37 486.54 555.67 492.02 540.18 497.42 523.82 501.71 507.81 504.94 492.7 508.28 478.92 510.78 466.55 512.58 455.54 514.89 445.48 516.85 435.95 518.64 427.1 521.41 418.11 524.34 408.69 527.49 399.4 531.86 389.36 536.51 378.56 541.26 367.75 546.95 356.74 552.06 345.81 556.34 335.06 560.76 324.68 563.82 315.05 565.35 305.92 566.42 297.91 565.7 291.36 563.23 285.48 560.08 281.14 555.2 278.34 548.81 275.69 541.85 273.96 533.57 272.71 524.25 270.29 514.59 267.33 504.12 263.47 493.1 257.58 481.95 250.71 470.41 243.33 458.68 235.27 446.94 228.27 435.08 223.46 423.27 220.67 411.45 221.46 400.21 225.59 389.6 231.77 378.93 240.22 368.81 249.98 359.25 259.66 349.54 269.28 340.28 278.32 331.48 285.86 322.42 292.63 313.68 298.79 305.32 303.66 296.59 308.54 288.15 313.79 280.07 318.53 271.63 324.16 263.58 330.82 256.05 337.43 248.35 345.19 241.33 354.06 235.23 362.93 229.28 372.86 224.52 383.81 221.21" stroke-dasharray="11 10" transform="rotate(46, 400, 400)" opacity="0.19"></path><path d="M392.44 231.88C402.87 229.22 414.05 228.22 425.86 228.81 437.78 230.01 450.45 232.79 463.69 236.98 477.01 241.73 490.69 247.77 504.22 254.9 517.16 262.44 529.07 270.9 539.08 280.08 547.13 289.49 552.16 299.49 553.55 309.88 552.47 320.37 548.04 331.17 540.97 342.12 533.86 353.11 526.71 364.21 521.15 375.26 519.6 386.34 521.79 397.34 527.85 408.11 537.92 418.88 549.07 428.88 559.32 438 568.33 447.09 573.35 455.26 573.76 462.45 570.45 469.58 562.73 475.7 551.65 480.8 538.51 485.87 523.9 490 508.94 493.21 494.19 496.58 480.16 499.25 467.17 501.33 455.13 503.9 444.01 506.19 433.62 508.3 423.83 511.28 414.26 514.35 404.71 517.55 395.32 521.78 385.62 526.19 375.61 530.59 365.6 535.8 355.76 540.44 346.28 544.3 336.94 548.33 328.19 551.15 320.34 552.62 309.66 553.54 295.07 546.77 291.13 539.26 288.67 533.31 286.77 526.11 285.02 517.9 281.97 509.39 278.31 500.05 273.78 490.12 267.48 480.05 260.43 469.52 253.09 458.73 245.29 447.91 238.59 436.89 233.96 425.82 231.16 414.75 231.63 404.13 235.2 394.02 240.7 383.87 248.45 374.16 257.64 364.92 267.04 355.56 276.68 346.56 286.03 337.96 294.23 329.14 301.81 320.61 308.79 312.42 314.55 303.94 320.13 295.73 325.81 287.89 330.84 279.77 336.46 272.03 342.86 264.84 349.05 257.53 356.25 250.88 364.5 245.12 372.69 239.52 382 235.02 392.44 231.88" stroke-dasharray="1 13" transform="rotate(49.285714285714285, 400, 400)" opacity="0.40"></path><path d="M402.29 242.54C412.21 240 422.85 238.97 434.05 239.38 445.3 240.33 457.11 242.71 469.21 246.38 481.18 250.55 493.12 255.91 504.48 262.29 515.06 269.04 524.29 276.68 531.47 285 536.89 293.55 539.56 302.68 539.15 312.2 536.99 321.84 532.29 331.8 525.77 341.89 519.72 352.05 513.98 362.31 509.82 372.52 509.19 382.75 511.68 392.91 517.36 402.82 526.42 412.74 536.41 421.92 545.75 430.29 554.36 438.62 559.78 446.13 561.42 452.74 560.05 459.31 554.75 465 546.23 469.79 535.61 474.61 523.14 478.61 509.81 481.84 496.15 485.27 482.64 488.1 469.74 490.44 457.38 493.24 445.75 495.78 434.88 498.16 424.47 501.28 414.5 504.45 404.86 507.65 395.38 511.72 385.98 515.86 376.66 519.92 367.34 524.67 358.52 528.85 350.32 532.31 342.2 535.95 334.85 538.51 328.45 539.89 319.68 540.93 307.76 535.52 304.18 529.17 301.59 524.13 299.25 517.92 296.83 510.75 293.11 503.31 288.76 495.05 283.65 486.16 277.06 477.15 269.93 467.63 262.72 457.77 255.25 447.88 248.89 437.72 244.45 427.42 241.67 417.11 241.85 407.14 244.85 397.57 249.65 387.96 256.63 378.7 265.12 369.83 274.05 360.85 283.48 352.17 292.88 343.83 301.51 335.31 309.7 327.05 317.39 319.1 324.03 310.92 330.39 303.01 336.69 295.46 342.29 287.71 348.22 280.35 354.69 273.53 360.86 266.63 367.84 260.38 375.74 254.98 383.53 249.74 392.36 245.52 402.29 242.54" stroke-dasharray="10 6" transform="rotate(52.57142857142857, 400, 400)" opacity="0.48"></path><path d="M411.77 253.21C421.14 250.79 431.04 249.74 441.32 249.99 451.6 250.71 462.15 252.71 472.68 255.89 482.95 259.5 492.84 264.2 501.84 269.84 510.02 275.82 516.7 282.63 521.37 290.09 524.62 297.77 525.49 306.01 523.88 314.64 521.16 323.39 516.62 332.45 510.91 341.67 506.01 350.95 501.63 360.34 498.73 369.68 498.87 379.05 501.58 388.35 506.86 397.43 514.97 406.5 523.84 414.9 532.26 422.56 540.31 430.2 545.89 437.09 548.41 443.19 548.6 449.27 545.4 454.59 539.27 459.14 531.16 463.74 521.04 467.66 509.71 470.92 497.71 474.39 485.38 477.37 473.24 479.92 461.27 482.9 449.77 485.65 438.91 488.22 428.34 491.43 418.28 494.62 408.74 497.78 399.32 501.66 390.23 505.53 381.52 509.25 372.81 513.55 364.84 517.3 357.67 520.37 347.38 524.77 331.4 528.27 325.8 526.95 320.82 523.97 312.59 511.71 307.95 502.83 303.58 496.38 298.63 489.13 293.06 481.24 286.31 473.25 279.22 464.71 272.23 455.77 265.15 446.81 259.16 437.52 254.95 427.99 252.21 418.47 252.12 409.17 254.57 400.17 258.65 391.15 264.81 382.39 272.49 373.92 280.78 365.38 289.76 357.08 298.96 349.06 307.72 340.91 316.26 332.98 324.44 325.34 331.8 317.54 338.88 309.99 345.8 302.8 352.08 295.47 358.5 288.53 365.24 282.11 371.65 275.67 378.65 269.84 386.35 264.81 393.94 259.94 402.39 256.01 411.77 253.21" stroke-dasharray="2 5" transform="rotate(55.857142857142854, 400, 400)" opacity="0.54"></path><path d="M419.32 263.88C428.06 261.6 437.07 260.54 446.19 260.65 455.27 261.15 464.32 262.81 473.06 265.52 481.49 268.6 489.26 272.67 495.97 277.6 501.93 282.82 506.41 288.82 509.05 295.42 510.66 302.23 510.32 309.58 508.06 317.3 505.26 325.14 501.21 333.29 496.49 341.6 492.76 349.98 489.66 358.48 487.87 366.95 488.66 375.44 491.5 383.88 496.36 392.13 503.56 400.38 511.36 408.02 518.84 415.01 526.24 421.99 531.74 428.31 534.83 433.95 536.2 439.6 534.74 444.59 530.7 448.93 524.95 453.34 517.19 457.18 508.04 460.48 498.06 463.98 487.4 467.07 476.57 469.79 465.62 472.88 454.85 475.77 444.52 478.47 434.31 481.7 424.56 484.87 415.35 487.95 406.22 491.61 397.55 495.2 389.41 498.58 381.27 502.45 373.99 505.78 367.58 508.48 358.35 512.37 344.06 515.57 338.77 514.55 333.65 512.14 323.94 501.82 318.25 494.19 313.31 488.65 307.88 482.34 302 475.39 295.23 468.36 288.3 460.76 281.63 452.74 274.99 444.69 269.41 436.25 265.45 427.53 262.77 418.81 262.44 410.21 264.36 401.83 267.74 393.43 273.05 385.2 279.83 377.21 287.33 369.17 295.66 361.3 304.39 353.68 312.98 345.96 321.56 338.44 329.93 331.19 337.75 323.82 345.35 316.7 352.76 309.93 359.65 303.07 366.55 296.59 373.59 290.61 380.33 284.64 387.44 279.26 395.01 274.61 402.49 270.12 410.58 266.49 419.32 263.88" stroke-dasharray="2 2" transform="rotate(59.142857142857146, 400, 400)" opacity="0.77"></path><path d="M423.7 274.55C431.73 272.41 439.74 271.37 447.58 271.36 455.37 271.67 462.84 273.01 469.77 275.28 476.41 277.87 482.22 281.34 486.92 285.58 491.04 290.08 493.78 295.28 494.96 301.05 495.48 307 494.48 313.45 492.09 320.27 489.56 327.19 486.25 334.43 482.62 341.83 480.03 349.3 478.08 356.89 477.25 364.49 478.54 372.1 481.43 379.69 485.87 387.13 492.21 394.57 498.99 401.48 505.54 407.84 514.81 417.09 522.9 432.78 520.55 439.28 516.87 443.5 511.32 447.26 504.36 450.57 496.53 454.06 487.82 457.21 478.65 460.04 469.2 463.19 459.66 466.15 450.3 468.91 440.94 472.1 431.88 475.2 423.28 478.15 414.73 481.57 406.61 484.86 399.03 487.91 391.45 491.36 384.73 494.29 378.83 496.64 370.3 500.03 356.69 502.87 351.24 502.06 345.64 500.11 334.22 491.45 327.59 484.93 322.22 480.19 316.49 474.74 310.48 468.68 303.83 462.54 297.2 455.85 290.92 448.71 284.78 441.54 279.63 433.96 275.94 426.05 273.36 418.13 272.82 410.27 274.25 402.54 276.94 394.8 281.39 387.17 287.23 379.71 293.81 372.21 301.31 364.86 309.34 357.71 317.46 350.49 325.74 343.44 333.99 336.65 341.93 329.78 349.74 323.15 357.38 316.85 364.66 310.51 371.89 304.53 379.11 299.03 386.11 293.56 393.28 288.63 400.68 284.39 408 280.29 415.68 276.96 423.7 274.55" stroke-dasharray="5 14" transform="rotate(62.42857142857143, 400, 400)" opacity="0.78"></path><path d="M424.21 285.22C431.44 283.24 438.39 282.22 444.96 282.11 454.45 282.79 469.88 288.76 475.1 293.82 478.59 299.84 479.02 314.93 476.31 323.64 474.32 329.67 471.89 335.99 469.36 342.49 467.83 349.04 466.89 355.74 466.84 362.46 468.5 369.21 471.37 375.95 475.38 382.6 480.89 389.24 486.71 395.46 492.34 401.2 500.61 409.6 509.45 424.09 508.93 430.24 506.95 434.28 503.33 437.93 498.37 441.2 492.65 444.65 485.94 447.8 478.61 450.68 470.92 453.82 462.91 456.77 454.86 459.52 446.72 462.62 438.68 465.59 430.94 468.37 423.2 471.53 415.79 474.52 408.81 477.25 401.83 480.28 395.58 482.83 390.03 484.85 381.93 487.76 368.36 490.2 362.46 489.52 356.25 487.92 343.25 480.66 335.92 475.12 330.31 471.1 324.47 466.43 318.52 461.18 312.15 455.87 305.92 450.03 300.12 443.74 294.52 437.42 289.84 430.69 286.44 423.59 283.97 416.5 283.26 409.39 284.24 402.36 286.29 395.31 289.88 388.33 294.76 381.47 300.36 374.58 306.88 367.8 314.02 361.19 321.4 354.54 329.08 348.04 336.87 341.77 344.55 335.45 352.22 329.37 359.77 323.6 367.11 317.82 374.38 312.37 381.57 307.38 388.61 302.43 395.68 297.98 402.77 294.14 409.82 290.44 416.98 287.42 424.21 285.22" stroke-dasharray="8 12" transform="rotate(65.71428571428572, 400, 400)" opacity="0.23"></path><path d="M420.75 295.89C433.51 292.48 444.32 292.41 452.41 295.23 459.87 298.84 463.78 305.13 463.81 313.38 463.42 322.14 460.5 332.51 456.78 343.69 456.6 355.06 459.09 366.98 464.88 378.71 475.27 390.45 485.11 400.83 491.81 409.64 496.72 418.55 495.9 426.16 490.02 432.42 481.69 439.23 470.03 445.22 457 450.3 443.46 456.45 429.8 462.04 417.15 466.58 404.49 472.08 393.88 475.57 385.03 476.87 375.56 478.24 366.84 476.91 358.35 472.99 348.11 468.77 337.22 461.97 326.15 453.01 314.18 443.88 303.71 432.81 296.94 420.27 293.16 407.72 295.38 394.94 302.52 382.54 312.24 370.1 324.99 357.92 338.94 346.58 353.06 335.17 367.37 324.62 381.14 315.67 394.64 306.9 408 300.03 420.75 295.89" stroke-dasharray="13 16" transform="rotate(69, 400, 400)" opacity="0.79"></path><path d="M413.9 306.55C424.88 303.46 433.61 303.21 439.69 305.43 445.42 308.24 448.19 313.34 448.08 320.18 448.18 327.4 446.7 336.07 444.91 345.56 446.06 355.18 449.13 365.4 454.38 375.62 463.09 385.83 471.26 395.04 477.11 403.03 482.1 411.12 482.81 418.21 479.41 424.2 474.27 430.64 465.97 436.37 455.87 441.24 445.26 446.91 433.88 451.95 422.67 455.91 411.46 460.61 401.42 463.49 392.46 464.49 383 465.59 373.84 464.44 364.75 461.11 354.48 457.61 343.83 451.91 333.42 444.3 322.66 436.58 313.43 427.09 307.43 416.18 303.82 405.28 305.13 394.04 310.59 383.04 318.23 372.03 328.75 361.21 340.65 351.14 353.08 341.07 365.98 331.77 378.44 323.91 390.87 316.24 402.91 310.22 413.9 306.55" stroke-dasharray="13 0" transform="rotate(72.28571428571428, 400, 400)" opacity="0.35"></path><path d="M404.77 317.22C417.51 314.29 431.6 319.9 433.13 327.43 434.01 333.22 433.95 340.31 433.78 348.17 435.88 356.13 439.24 364.7 443.89 373.43 451.03 382.15 457.59 390.18 462.44 397.3 467.05 404.5 468.54 410.97 466.86 416.57 464.1 422.49 458.58 427.81 451.11 432.33 443.24 437.41 434.14 441.85 424.49 445.24 414.84 449.17 405.56 451.49 396.78 452.21 387.68 453.05 378.54 452.02 369.46 449.2 359.69 446.3 349.78 441.57 340.4 435.2 331.03 428.77 323.12 420.78 317.93 411.5 314.55 402.22 315.11 392.57 319.03 383.06 324.7 373.57 332.9 364.22 342.51 355.51 352.79 346.83 363.71 338.85 374.39 332.11 385.18 325.55 395.55 320.39 404.77 317.22" stroke-dasharray="12 2" transform="rotate(75.57142857142857, 400, 400)" opacity="0.08"></path><path d="M394.85 327.89C405.22 325.3 417.23 329.32 419.52 335.16 421.19 339.66 422.32 345.26 423.38 351.59 426.04 357.97 429.41 364.97 433.39 372.23 439.06 379.48 444.13 386.3 447.92 392.48 452.63 401.58 449.87 417.14 442.85 423.55 437.28 427.96 430.29 431.75 422.3 434.57 414.29 437.76 406.08 439.57 397.94 440.04 389.63 440.62 381.11 439.7 372.66 437.34 363.91 434.95 355.2 431.07 347.16 425.86 339.33 420.62 332.78 414.06 328.43 406.39 325.38 398.72 325.35 390.69 327.94 382.75 331.8 374.83 337.77 367.01 345.04 359.74 352.93 352.51 361.56 345.87 370.15 340.29 378.9 334.85 387.35 330.56 394.85 327.89" stroke-dasharray="1 1" transform="rotate(78.85714285714285, 400, 400)" opacity="0.77"></path><path d="M385.78 338.56C397.52 334.87 404.57 337.07 407.69 343.39 412.71 350.19 417.61 360.44 422.89 372.05 432.38 383.66 438.11 394.43 437.85 402.94 436.75 412.02 429.08 419.65 416.45 423.91 403.82 429.07 389.02 429.48 374.69 425.6 360.12 421.73 346.6 413.22 338.92 401.05 334.64 388.87 339.07 375.53 348.71 363.9 360.22 352.46 374.04 343.04 385.78 338.56" stroke-dasharray="11 13" transform="rotate(82.14285714285715, 400, 400)" opacity="0.19"></path><path d="M379.04 349.23C387.69 346.32 393.93 347.69 397.91 352.13 403.09 356.81 408.07 364.2 412.4 372.92 419.05 381.63 422.81 390.06 422.58 396.89 422.23 404.03 417.2 410.01 407.91 413.24 398.62 416.97 387.12 417.09 375.99 414.05 365.05 411.07 355.09 404.71 349.42 395.66 345.73 386.61 347.92 376.69 353.93 368.05 361.08 359.57 370.38 352.59 379.04 349.23" stroke-dasharray="15 9" transform="rotate(85.42857142857143, 400, 400)" opacity="0.93"></path><path d="M375.73 359.9C387.17 356.06 396.87 363.12 401.9 374.79 410.94 386.45 410.17 398.46 398.08 402.57 385.97 407.56 368.04 402.4 359.92 390.44 355.38 378.46 364.27 364.55 375.73 359.9" stroke-dasharray="14 0" transform="rotate(88.71428571428572, 400, 400)" opacity="0.99"></path></g></svg>